<?xml version="1.0" encoding="UTF-8"?><svg id="a" xmlns="http://www.w3.org/2000/svg" viewBox="0 0 500 500"><defs><style>.b{fill:#40738c;}.c{fill:#fff;}</style></defs><polygon class="b" points="483.72 16.8723 449.3607 16.8723 449.3607 16.8834 16.8009 16.9056 40.1419 91.137 16.28 91.137 16.28 409.7817 39.2033 409.7817 16.28 482.4354 447.5353 482.4354 447.5353 482.4169 483.1991 482.4021 459.8581 408.1707 483.72 408.1707 483.72 89.526 460.7967 89.526 483.72 16.8723"/><rect class="c" x="95.2517" y="101.2645" width="309.5292" height="5.3466"/><rect class="c" x="95.2517" y="390.2498" width="309.5292" height="5.3466"/><path class="c" d="M95.7602,249.5902c-.4656-.7205-.4951-1.2895-.0813-1.6996l7.2717-8.9751c7.9441-9.9024,14.0777-17.8392,18.4118-23.825,4.3342-5.9784,7.8887-12.0123,10.6747-18.1015,2.7824-6.0856,4.1753-12.0123,4.1753-17.7912,0-6.2852-1.5445-11.0848-4.6409-14.3844-3.0926-3.2996-7.375-4.9512-12.8398-4.9512-5.0547,0-9.3076,1.3893-12.7624,4.1753-3.4585,2.786-5.9562,6.7063-7.5007,11.7572,0,.1072-.2069.1553-.6207.1553-.8277,0-1.1897-.2069-1.0826-.6207,1.3376-7.2162,4.4598-12.8622,9.3555-16.9414,4.8996-4.0681,11.011-6.1077,18.3381-6.1077,7.5229,0,13.4312,2.143,17.7136,6.4218,4.275,4.2824,6.4181,9.8766,6.4181,16.7861,0,5.7752-1.4964,11.6796-4.4856,17.7136-2.993,6.0338-6.5216,11.5467-10.5971,16.5533-4.0755,5.003-9.1561,10.8041-15.2416,17.3996-5.3613,5.7826-8.9714,9.8507-10.8262,12.2265-.6207.7205-.4138,1.0789.617,1.0789,12.585,0,21.608-.2032,27.0766-.617,5.4648-.4138,9.2559-1.3671,11.3656-2.8598,2.1172-1.4964,3.2257-3.9463,3.3291-7.3493,0-.2069.3067-.314.9275-.314s.9311.1071.9311.314l-.1589,19.3357c0,.4138-.1292.8018-.3842,1.1602-.2624.3658-.5949.5432-1.0088.5432h-52.9042c-.5211,0-1.005-.3621-1.4706-1.0826"/><path class="c" d="M204.0354,158.7017c-2.169,2.4239-3.2478,5.5424-3.2478,9.3556,0,3.924.9015,7.3787,2.7047,10.368,1.8032,2.9929,4.1014,5.5461,6.8874,7.6559,2.7821,2.1172,6.5475,4.6187,11.2918,7.5045,3.9202-5.7715,5.8787-12.4298,5.8787-19.9564,0-6.0856-1.3414-10.6968-4.0201-13.8487-2.6862-3.1443-6.2409-4.7146-10.6746-4.7146-3.7173,0-6.6547,1.2118-8.8199,3.6357M230.336,244.5611c3.0928-3.4548,4.641-8.1695,4.641-14.1553,0-4.7406-1.0606-8.8678-3.1704-12.3744-2.1172-3.5065-4.6963-6.3959-7.7372-8.6684-3.0445-2.265-7.1423-4.9955-12.3004-8.1953l-5.8788-3.7134c-7.2198,5.9821-10.8299,14.2846-10.8299,24.9076,0,8.0439,2.036,14.6209,6.1151,19.7237,4.0719,5.1064,9.4592,7.6559,16.1655,7.6559,5.5681,0,9.9024-1.7219,12.995-5.1803M240.2348,208.2842c3.717,4.434,5.5684,10.2091,5.5684,17.3256,0,5.365-1.419,10.1093-4.2493,14.2366-2.8377,4.1235-6.7063,7.2938-11.6058,9.5108s-10.3422,3.3291-16.3205,3.3291c-6.4994,0-12.0936-1.1897-16.7861-3.5619-4.6927-2.3721-8.2768-5.5942-10.7487-9.6697-2.4793-4.0682-3.717-8.5834-3.717-13.5383,0-6.3923,2.0137-12.2192,6.0338-17.4809,4.0238-5.2578,9.0231-9.4849,15.0089-12.6847-4.0239-2.9892-7.1166-6.1594-9.2818-9.5145-2.1652-3.3475-3.2515-7.3455-3.2515-11.9864,0-4.7443,1.186-8.7682,3.5582-12.0677,2.3684-3.2996,5.4648-5.7789,9.2817-7.4232,3.8132-1.6517,7.789-2.4794,11.9126-2.4794,6.7063,0,12.1969,1.8586,16.4757,5.5684,4.2788,3.717,6.4181,8.3579,6.4181,13.9262,0,4.434-1.26,8.661-3.7874,12.6848-2.5272,4.0201-5.9562,7.6338-10.2903,10.8262,6.8098,4.2308,12.0677,8.5649,15.7811,12.9988"/><path class="c" d="M274.7847,249.7421c0-.617.1516-.9237.4655-.9237,5.6644,0,9.9209-.2845,12.7587-.8535,2.8377-.5654,4.8478-1.5962,6.0338-3.0964,1.1824-1.489,1.7809-3.7355,1.7809-6.7248v-60.804c0-3.089-.336-5.3577-1.0085-6.8061-.6689-1.441-1.7773-2.1615-3.3255-2.1615-1.4447,0-3.7134.8499-6.806,2.5495-3.0928,1.7034-6.4957,3.9425-10.213,6.7322l-.3067.1516c-.4138,0-.7203-.2329-.9273-.6947-.2068-.4619-.2068-.7944,0-1.0086l31.8653-23.2005c.5171-.3104.8793-.4656,1.0863-.4656.2068,0,.41.1034.617.3066.2068.207.3139.4656.3139.7723v84.629c0,3.089.5394,5.3614,1.6186,6.8061,1.0861,1.4447,3.0409,2.4497,5.8823,3.0151,2.8339.569,7.2422.8535,13.228.8535.2068,0,.3067.3067.3067.9237,0,.6207-.0999.9275-.3067.9275-4.7481,0-8.4577-.048-11.1403-.1516l-15.1605-.1552-15.3154.1552c-2.6864.1035-6.3405.1516-10.9815.1516-.3139,0-.4655-.3067-.4655-.9275"/><path class="c" d="M351.8231,249.7421c0-.617.1552-.9237.4655-.9237,5.668,0,9.9209-.2845,12.7625-.8535,2.8339-.5654,4.844-1.5962,6.03-3.0964,1.1899-1.489,1.7848-3.7355,1.7848-6.7248v-60.804c0-3.089-.3399-5.3577-1.0051-6.8061-.6761-1.441-1.7846-2.1615-3.3291-2.1615-1.4447,0-3.7096.8499-6.806,2.5495-3.0964,1.7034-6.4993,3.9425-10.2091,6.7322l-.3103.1516c-.4138,0-.7241-.2329-.9276-.6947-.2104-.4619-.2104-.7944,0-1.0086l31.8689-23.2005c.5137-.3104.8721-.4656,1.0791-.4656.2068,0,.4138.1034.6206.3066.207.207.3103.4656.3103.7723v84.629c0,3.089.5394,5.3614,1.6222,6.8061,1.0825,1.4447,3.0409,2.4497,5.8787,3.0151,2.8377.569,7.2458.8535,13.228.8535.2068,0,.3103.3067.3103.9237,0,.6207-.1035.9275-.3103.9275-4.7443,0-8.4577-.048-11.1367-.1516l-15.1641-.1552-15.3154.1552c-2.6826.1035-6.3405.1516-10.9815.1516-.3103,0-.4655-.3067-.4655-.9275"/><path class="c" d="M159.5316,337.592c0,.3178-.0518.4766-.1589.4766-1.7514,0-3.1592-.0258-4.2233-.0776l-5.7383-.0813-5.5756.0813c-.957.0518-2.3093.0776-4.0645.0776-.1072,0-.1589-.1589-.1589-.4766s.0516-.4766.1589-.4766c2.3389,0,3.9056-.266,4.7-.7981.7981-.5321,1.1971-1.6443,1.1971-3.3476l-.0812-1.3523-1.5925-33.7829-16.9709,39.6763c-.1071.2144-.3178.3215-.6355.3215-.266,0-.5062-.1071-.7168-.3215l-19.9194-39.3586-.7168,30.2764c-.0555,2.8156.4914,4.9697,1.6331,6.4551,1.1418,1.4854,2.8562,2.2318,5.1397,2.2318.1589,0,.2365.1589.2365.4766s-.0776.4766-.2365.4766c-1.4336,0-2.5495-.0258-3.3476-.0776l-4.3822-.0813-4.7.0813c-.7981.0518-1.914.0776-3.3476.0776-.1589,0-.2402-.1589-.2402-.4766s.0813-.4766.2402-.4766c2.18,0,3.865-.7464,5.0584-2.2318,1.1971-1.4854,1.8215-3.6395,1.8733-6.4551l.7168-34.2595c-.9533-1.6996-2.0064-2.9485-3.1444-3.743-1.1454-.798-2.4608-1.1971-3.9462-1.1971-.1589,0-.2402-.1589-.2402-.4766s.0813-.4804.2402-.4804l3.4252.0813c.691.0516,1.5962.0813,2.7121.0813l3.743-.0813c.4249-.0518.957-.0813,1.5925-.0813.6909,0,1.2488.255,1.6738.7574.4249.5062,1.0899,1.6332,1.9916,3.3882l17.5288,34.1782,15.855-36.3287c.3179-.7464.6652-1.2636,1.0347-1.5555.3731-.2919.8239-.4397,1.3559-.4397.3695,0,.8499.0295,1.4336.0813.5839.0516,1.3007.0813,2.1505.0813l4.3046-.0813c.6873-.0518,1.7256-.0813,3.1075-.0813.1034,0,.1589.1626.1589.4804s-.0555.4766-.1589.4766c-2.5495,0-4.397.4655-5.5387,1.3929-1.1418.9312-1.659,2.4609-1.5519,4.5818l1.829,36.4136c.1072,1.6443.3067,2.8415.5986,3.5841.2918.7426.8387,1.2489,1.6331,1.5149.7981.266,2.0987.3991,3.9056.3991.1071,0,.1589.1589.1589.4766"/><path class="c" d="M190.2074,316.2855l8.1473-18.29,9.012,18.29h-17.1593ZM230.0647,337.1139c-1.4336,0-2.7748-.702-4.0238-2.1099-1.2489-1.4077-2.8008-4.0238-4.6593-7.848l-19.5205-39.3622c-.0555-.1589-.266-.2365-.6392-.2365s-.6097.0776-.7168.2365l-17.1297,38.5641c-1.3302,2.9745-2.4719,5.2173-3.4252,6.7323-.957,1.5149-1.9399,2.5643-2.9486,3.1481-1.0088.5838-2.2576.8757-3.7467.8757-.2624,0-.3953.1589-.3953.4766,0,.3215.1329.4804.3953.4804,1.1159,0,2.5237-.0518,4.2233-.1589,1.914-.1071,3.5878-.1589,5.0215-.1589,1.4853,0,3.2367.0518,5.2578.1589,1.8069.1071,3.1888.1589,4.142.1589.2661,0,.3991-.1589.3991-.4804,0-.3178-.1329-.4766-.3991-.4766-2.3906,0-4.2492-.4766-5.5757-1.4336-1.3301-.957-1.9916-2.3648-1.9916-4.2233,0-1.2748.3437-2.7084,1.0347-4.3009l3.9535-8.8789h19.0289l6.1779,12.5406c.9016,1.914,1.3561,3.2663,1.3561,4.0645s-.3584,1.3671-1.0753,1.7144c-.7203.3474-1.8475.5173-3.3881.5173-.2106,0-.3178.1589-.3178.4766,0,.3215.1071.4804.3178.4804,1.0086,0,2.4164-.0518,4.2232-.1589s3.3736-.1589,4.7001-.1589c1.0088,0,2.6307.0518,4.8625.1589,2.2282.1071,3.8501.1589,4.8589.1589.2661,0,.3989-.1589.3989-.4804,0-.3178-.1328-.4766-.3989-.4766"/><path class="c" d="M258.7201,335.0026c.3989.7686,1.1675,1.3154,2.3093,1.6331,1.1454.3179,2.9374.4768,5.3798.4768.159,0,.2402.1625.2402.4802s-.0812.4766-.2402.4766c-2.1799,0-3.8796-.0258-5.099-.0812l-6.9316-.0777-5.7346.0777c-1.0124.0554-2.3944.0812-4.1458.0812-.159,0-.2402-.1589-.2402-.4766s.0812-.4802.2402-.4802c1.8069,0,3.1075-.1293,3.9056-.3955.7943-.266,1.3412-.7722,1.6332-1.5149.2882-.7426.4359-1.9398.4359-3.584v-36.8904c0-1.5925-.1477-2.7602-.4359-3.5065-.2921-.7426-.85-1.26-1.6738-1.5519-.8241-.2918-2.1136-.4397-3.865-.4397-.159,0-.2402-.1589-.2402-.4766,0-.3215.0812-.4804.2402-.4804l4.1458.0813c2.3353.1071,4.2195.1589,5.6531.1589,1.223,0,2.7085-.0813,4.4635-.2402.6394-.0518,1.5002-.1034,2.5901-.1589,1.0863-.0518,2.3759-.0776,3.865-.0776,5.258,0,9.411,1.1122,12.4668,3.3439,3.0556,2.2318,4.5817,5.657,4.5817,10.2794,0,3.3475-.8646,6.189-2.5901,8.5242-1.7257,2.3389-3.9315,4.0904-6.6141,5.2579-2.6824,1.1714-5.4279,1.7551-8.2433,1.7551-1.4891,0-2.7381-.1331-3.7468-.3991-.1588,0-.2363-.1331-.2363-.3991,0-.1589.0368-.3178.1182-.4766.0776-.1589.17-.2142.2772-.1589.8498.2106,1.7809.3178,2.7897.3178,2.7602,0,5.099-1.1417,7.0092-3.4252,1.914-2.2834,2.8709-5.5497,2.8709-9.8026,0-4.1938-.9828-7.4491-2.9485-9.7584-1.9656-2.3129-4.6742-3.4658-8.1251-3.4658-1.2749,0-2.2466.1331-2.9081.3991-.6651.266-1.1305.7538-1.3967,1.4706-.2659.7204-.3989,1.8475-.3989,3.3882v36.41c0,1.6996.1996,2.9374.5985,3.706"/><path class="c" d="M317.2912,331.2974c0,1.4336.1182,2.4682.3584,3.1075s.702,1.0641,1.3967,1.2748c.6874.2142,1.8033.3178,3.344.3178h4.7813c3.7687,0,6.9576-1.0456,9.5587-3.1481,2.605-2.0951,4.3305-4.9217,5.1805-8.4837.0516-.1589.2104-.2254.4804-.1995.2623.0295.3953.1182.3953.2808-.4768,4.9919-.7169,9.134-.7169,12.4261,0,.4286-.0776.7316-.2402.92-.1588.1848-.4765.2772-.9533.2772h-37.2893c-.1071,0-.159-.1589-.159-.4766,0-.3215.0519-.4804.159-.4804,1.8069,0,3.1185-.1293,3.9462-.3991.8202-.2624,1.3782-.7833,1.67-1.5519.2921-.7685.4398-1.9509.4398-3.5471v-36.8866c0-1.5962-.1477-2.7638-.4398-3.5065-.2918-.7426-.8608-1.26-1.7106-1.5518-.85-.2919-2.1506-.4398-3.9056-.4398-.1071,0-.159-.1589-.159-.4804,0-.3178.0519-.4766.159-.4766l4.0643.0813c2.3389.1035,4.2493.1589,5.7346.1589,1.5962,0,3.5583-.0554,5.8972-.1589l3.9832-.0813c.1588,0,.2402.1589.2402.4766,0,.3215-.0814.4804-.2402.4804-1.7514,0-3.0409.1478-3.8612.4398-.8241.2918-1.382.8202-1.6738,1.5925-.2957.7685-.4398,1.9509-.4398,3.5434v36.4913Z"/><path class="c" d="M398.4571,325.4815c.159,0,.3029.0406.4398.1183.1292.0812.1994.1477.1994.1995-.532,4.0385-.7981,7.7299-.7981,11.0738,0,.4286-.0812.7316-.24.9163-.159.1884-.4768.2809-.9535.2809h-34.5808c-.159,0-.2402-.1589-.2402-.4766,0-.3215.0812-.4804.2402-.4804,1.8067,0,3.1221-.1331,3.9462-.3991.8202-.2624,1.3782-.7833,1.67-1.5519.2921-.7686.4398-1.9509.4398-3.5471v-36.8866c0-1.5962-.1477-2.7639-.4398-3.5065-.2918-.7426-.8608-1.26-1.7108-1.5555-.8498-.2882-2.1503-.436-3.9054-.436-.159,0-.2402-.1589-.2402-.4804,0-.3178.0812-.4766.2402-.4766h33.1435c.532,0,.7981.2402.7981.7168l.159,10.357c0,.1071-.1479.1884-.4362.2402-.2954.0518-.4655,0-.521-.1589-1.2746-6.056-4.966-9.0822-11.0738-9.0822h-3.185c-1.914,0-3.2662.3436-4.0643,1.0346s-1.1973,1.8585-1.1973,3.5065v16.254h7.6486c5.8455,0,8.7683-.702,8.7683-4.6335,0-.1589.1439-.2365.4359-.2365.2918,0,.4398.0776.4398.2365l-.0814,5.668.0814,3.7467c.1033,1.6996.1588,1.8142.1588,2.8747,0,.1071-.1588.1589-.4804.1589-.3178,0-.4765-.0518-.4765-.1589,0-4.567-2.9746-5.5868-8.9234-5.5868h-7.571v18.0868c0,1.7551.3326,2.9744.9977,3.6654.6651.6909,1.8439,1.0346,3.5434,1.0346h3.9056c7.1166,0,11.6317-3.4512,13.5457-10.357,0-.1071.1071-.1589.3178-.1589"/></svg>